<svg xmlns="http://www.w3.org/2000/svg" viewBox="0 0 1000 504.86"><defs><style>.cls-1{fill:#381e09;}</style></defs><g id="OBJECTS"><path class="cls-1" d="M487.77,153.91c9.85-1.58,20.67-10,25.88-22.67a43.62,43.62,0,0,0,3-21.18,44.39,44.39,0,0,0-2.74-11,80.65,80.65,0,0,0-4.34-9.14c-1.48-2.72-2.87-5.17-4-7.44-.57-1.12-1.1-2.2-1.51-3.25a32.33,32.33,0,0,1-1.24-3.24,48.39,48.39,0,0,1-2.35-14.11,58.6,58.6,0,0,1,6.91-28.47c-9.33,3.45-18.58,13-22.38,26a46.86,46.86,0,0,0-1.25,21A48.46,48.46,0,0,0,486.86,91c1.38,3.26,2.92,6.17,4.34,8.81s2.74,5,3.79,7.22a32.29,32.29,0,0,1,1.33,3.17,29,29,0,0,1,1,3.15,41.56,41.56,0,0,1,1.17,13.82A49.46,49.46,0,0,1,487.77,153.91Z"/><path class="cls-1" d="M422.76,153.91c8.18-1.31,17.16-8.29,21.48-18.82a36.12,36.12,0,0,0,2.51-17.59,37.12,37.12,0,0,0-2.28-9.17,68.31,68.31,0,0,0-3.6-7.59c-1.23-2.26-2.38-4.29-3.34-6.17-.47-.94-.91-1.83-1.25-2.71a27,27,0,0,1-1-2.68,40.53,40.53,0,0,1-2-11.72A48.58,48.58,0,0,1,439,53.83c-7.75,2.86-15.43,10.82-18.59,21.58a38.87,38.87,0,0,0-1,17.43,40.33,40.33,0,0,0,2.6,8.83c1.14,2.7,2.42,5.12,3.6,7.31s2.27,4.17,3.14,6a25.35,25.35,0,0,1,1.11,2.63,22.31,22.31,0,0,1,.86,2.62,34.27,34.27,0,0,1,1,11.47A41,41,0,0,1,422.76,153.91Z"/><path class="cls-1" d="M556.93,153.91c8.18-1.31,17.17-8.29,21.48-18.82a36.12,36.12,0,0,0,2.51-17.59,37.12,37.12,0,0,0-2.28-9.17,66.57,66.57,0,0,0-3.6-7.59c-1.23-2.26-2.38-4.29-3.34-6.17-.47-.94-.91-1.83-1.25-2.71a27,27,0,0,1-1-2.68,40.53,40.53,0,0,1-2-11.72,48.69,48.69,0,0,1,5.75-23.63c-7.75,2.86-15.43,10.82-18.59,21.58a38.87,38.87,0,0,0-1,17.43,40.88,40.88,0,0,0,2.6,8.83c1.14,2.7,2.42,5.12,3.6,7.31s2.27,4.17,3.14,6A25.35,25.35,0,0,1,564,117.6a22.31,22.31,0,0,1,.86,2.62,34.27,34.27,0,0,1,1,11.47A41,41,0,0,1,556.93,153.91Z"/><path class="cls-1" d="M661.34,250.7c-4.61-5.23-10.91-10.17-18.69-14.71,5.34,7.17,11.81,21.06-13.57,27,6.58-4.48,13.15-12.25,10.55-28.75-4.34-20.51-21.89-37.09-44.86-43.12a75.66,75.66,0,0,0-36.46-.45c10.64,2.61,38.49,17.41,12.81,62,1.49-24.1-3-43.43-16.13-61.11-11.54-15.52-31.85-25.83-55-25.83a72.4,72.4,0,0,0-38.06,10.53,62,62,0,0,0-14.41,12.17c21.18-8.69,52.17,1.11,52.47,56.67-6.57-28.69-34.06-47.21-55-53.54a75.08,75.08,0,0,0-20.62-2.86c-20.13,0-38.11,7.81-50,20.06a53.28,53.28,0,0,0-12.67,20.63c14.47-19.88,58.24-21.74,77.36,23.28-6.77-10.76-45.81-28.29-78.67-18.39a86,86,0,0,0-18.95,13.53c-7.43,7.26-11.53,15.15-11.53,23.4,0,35.7,76.16,31.72,170.11,31.72s170.11,4,170.11-31.72C670.11,264,667,257.14,661.34,250.7Z"/><path class="cls-1" d="M642.78,366.91h-6v27.35h6.08a6.29,6.29,0,0,0,4-1.07c.86-.7,1.48-2.05,1.84-4.05a56.61,56.61,0,0,0,.56-9.39v-.55q0-9.34-1.68-10.82A7.17,7.17,0,0,0,642.78,366.91Z"/><path class="cls-1" d="M563.05,366.91h-4.88V432.7h4.88a7.35,7.35,0,0,0,4.32-1.1q3.36-2.4,3.37-13.17V381.14q0-7.61-1.8-10.92A6.19,6.19,0,0,0,563.05,366.91Z"/><polygon class="cls-1" points="428.24 374.37 422.34 417.19 434.77 417.19 428.37 374.37 428.24 374.37"/><polygon class="cls-1" points="519.37 374.37 513.48 417.19 525.91 417.19 519.51 374.37 519.37 374.37"/><polygon class="cls-1" points="709.45 374.37 703.56 417.19 715.98 417.19 709.59 374.37 709.45 374.37"/><path class="cls-1" d="M949,366.2,892.57,369v-28.6a16.73,16.73,0,0,0-33.24-3.12c-9.18-11.5-23.46-18.5-45.24-18.5H185.9c-21.77,0-36.06,7-45.23,18.5a16.74,16.74,0,0,0-33.25,3.12v28.25L61.23,366.2c-25.44,0-37.74,12.95-37.74,28.95s12.3,29,37.74,29l46.19-2.47V449.9A16.73,16.73,0,0,0,140.67,453c9.17,11.49,23.46,18.48,45.23,18.48H814.09c21.77,0,36.06-7,45.24-18.48a16.73,16.73,0,0,0,33.24-3.11V421.3L949,424.12c15.16,0,27.47-13,27.47-29S964.2,366.2,949,366.2ZM194.29,405.36a10.22,10.22,0,1,1,10.21-10.22A10.22,10.22,0,0,1,194.29,405.36Zm101.74,35H271.54v-81h9.53v73.17h15Zm36,0-2.3-15.47h-14.7l-2.11,15.47h-9.07l12.29-81h11.47l13.39,81Zm73-47.7c-.62,5.53-2.08,9.55-4.38,12.09s-5.8,3.8-10.5,3.8h-6.77v31.81h-9.53v-81h16.3q10.78,0,13.54,8.94a44.44,44.44,0,0,1,1.75,13.12Q405.44,388.91,405,392.69Zm33.24,47.7L436,424.92H421.28l-2.12,15.47h-9.07l12.3-81h11.46l13.4,81Zm52.7,0h-7l-18.19-55.62.55,20.44v35.18h-8.79v-81h7.18l18.79,55.16-1-23.43V359.35H491Zm38.44,0-2.3-15.47H512.42l-2.12,15.47h-9.07l12.3-81H525l13.4,81Zm47-5.48q-3.83,5.47-12.85,5.48H548.68v-81h15.24q9.3,0,12.8,5.74t3.5,16.27l0,35.59Q580.27,429.43,576.45,434.91Zm39.81,5.48h-24.4v-81h24.21v7.92H601.39V395h13.9v7.92h-13.9v29.56h14.87Zm33.79,0q-.74-1.47-.73-27.3,0-8.7-1.7-10.11a8,8,0,0,0-5.16-1.4l-5.67-.33v39.14h-9.53v-81h17q7.23,0,10.41,3t3.82,10.17c.19,2,.27,5,.27,9.19a29.55,29.55,0,0,1-1.62,10.48,8.64,8.64,0,0,1-5.79,5.47,6.31,6.31,0,0,1,4.61,3.2c1,1.8,1.78,4.65,2.21,8.57a173.89,173.89,0,0,1,.64,17.45q0,11.58.74,13.51Zm30.61,0h-9.54v-81h9.54Zm5.8-91.26-19.29,4V348l19.29-8Zm33,91.26-2.29-15.47H702.5l-2.12,15.47H691.3l12.3-81h11.46l13.4,81Zm86.23-35a10.22,10.22,0,1,1,10.21-10.22A10.22,10.22,0,0,1,805.71,405.36Z"/><path class="cls-1" d="M389.42,366.91h-6v33.75h5.81a5.22,5.22,0,0,0,5.38-3.55q1.33-3.54,1.34-13.31v-1.56q0-8.34-1.31-11.84A5.05,5.05,0,0,0,389.42,366.91Z"/><polygon class="cls-1" points="322.01 374.37 316.12 417.19 328.55 417.19 322.15 374.37 322.01 374.37"/></g></svg>